# xmcd
#
# Track frame offsets:
#	150
#	20662
#	43285
#	69080
#	88730
#	109950
#	133717
#	152757
#	174780
#	195040
#
# Disc length: 2956 seconds
#
# Revision: 3
# Processed by: cddbd v1.5.2PL0 Copyright (c) Steve Scherf et al.
# Submitted via: EZCDAudioConverter 8.0.2.1
#
DISCID=7a0b8a0a
DTITLE=Various Artist - Tác Giả Và Tác Phẩm
DYEAR=1995
DGENRE=Mainstream Rock
TTITLE0=Lê Uyên, Phương - Cho lần cuối
TTITLE1=Sĩ Phú - Mắt biếc
TTITLE2=Thanh Lan, Quỳnh Hưng, Trung Hành - LK Nhạc trẻ
TTITLE3=Kim Anh - Mưa lệ
TTITLE4=Trizzie Phương Trinh - Muộn màng
TTITLE5=Thùy Dương - Đoản khúc cuối cho em
TTITLE6=Lâm Nhật Tiến and Lâm Bảo Tường - Người tình trăm năm
TTITLE7=Duy Quang - Chỉ chừng đó thôi
TTITLE8=Công Thành, Lynn - Gặp nhau làm ngơ
TTITLE9=Hợp Ca Asia  - Bên em đang có ta
EXTD=
EXTT0=
EXTT1=
EXTT2=
EXTT3=
EXTT4=
EXTT5=
EXTT6=
EXTT7=
EXTT8=
EXTT9=
PLAYORDER=
